<?xml version="1.0" standalone="no"?>
<!DOCTYPE svg PUBLIC "-//W3C//DTD SVG 20010904//EN"
 "http://www.w3.org/TR/2001/REC-SVG-20010904/DTD/svg10.dtd">
<svg version="1.0" xmlns="http://www.w3.org/2000/svg"
 width="128.000000pt" height="128.000000pt" viewBox="0 0 128.000000 128.000000"
 preserveAspectRatio="xMidYMid meet">

<g transform="translate(0.000000,128.000000) scale(0.100000,-0.100000)"
fill="#000000" stroke="none">
<path d="M377 1246 c-63 -23 -116 -64 -148 -114 -74 -116 -63 -210 44 -382 64
-103 179 -251 191 -247 16 5 139 169 187 249 90 148 110 247 68 338 -25 55
-81 115 -134 142 -51 27 -156 34 -208 14z m164 -159 c68 -46 76 -142 15 -203
-45 -45 -97 -54 -151 -25 -52 28 -75 66 -75 126 0 42 5 52 39 86 35 35 44 39
88 39 35 0 60 -7 84 -23z"/>
<path d="M915 846 c-22 -9 -50 -27 -61 -42 -20 -24 -25 -26 -54 -15 -59 20
-66 16 -130 -81 -33 -50 -60 -94 -60 -98 0 -4 11 -12 24 -18 35 -16 60 -57 52
-87 -27 -105 -349 -126 -426 -27 -31 38 -25 66 20 105 l40 34 -20 25 c-11 14
-40 61 -66 104 -25 44 -53 85 -62 92 -25 19 -61 14 -89 -14 -26 -26 -26 -28
-20 -129 6 -85 4 -109 -9 -132 -25 -43 0 -95 58 -123 54 -25 90 -79 113 -168
31 -121 36 -133 67 -152 33 -20 132 -36 278 -45 52 -4 137 -18 189 -31 160
-41 358 -30 422 23 25 21 30 32 27 61 -2 29 -11 43 -48 70 -25 19 -48 42 -51
51 -3 9 2 43 11 76 11 39 14 70 9 88 -7 24 -1 38 37 89 104 141 92 263 -31
324 -68 33 -162 41 -220 20z"/>
<path d="M330 573 c-26 -10 -50 -36 -50 -54 0 -51 176 -86 281 -56 91 27 112
69 51 101 -30 15 -30 15 -68 -32 -47 -58 -52 -62 -85 -62 -20 0 -36 13 -69 55
-23 30 -43 55 -44 54 0 0 -8 -3 -16 -6z"/>
</g>
</svg>
