<?xml version="1.0" standalone="no"?>
<!DOCTYPE svg PUBLIC "-//W3C//DTD SVG 20010904//EN"
 "http://www.w3.org/TR/2001/REC-SVG-20010904/DTD/svg10.dtd">
<svg version="1.0" xmlns="http://www.w3.org/2000/svg"
 width="128.000000pt" height="128.000000pt" viewBox="0 0 128.000000 128.000000"
 preserveAspectRatio="xMidYMid meet">

<g transform="translate(0.000000,128.000000) scale(0.100000,-0.100000)"
fill="#000000" stroke="none">
<path d="M565 1216 c-5 -3 -27 -7 -47 -11 l-38 -6 0 -53 c0 -38 6 -61 20 -79
12 -15 20 -40 20 -62 0 -31 4 -37 30 -47 51 -17 65 -63 30 -98 -17 -17 -33
-20 -107 -20 -70 0 -84 -2 -74 -12 7 -8 37 -13 71 -13 47 0 63 -4 82 -22 33
-32 57 -29 70 7 6 19 19 32 34 36 13 3 24 11 24 18 1 26 21 40 67 45 l48 6 3
146 c2 145 2 147 -20 153 -28 8 -199 17 -213 12z"/>
<path d="M411 1168 c-13 -5 -54 -30 -90 -56 l-66 -47 40 -3 c46 -4 85 -35 85
-67 0 -12 -9 -34 -21 -49 -16 -20 -29 -26 -60 -26 -27 0 -39 -4 -39 -14 0 -29
-30 -46 -80 -46 -45 0 -49 -2 -60 -32 -14 -41 -25 -190 -16 -214 6 -15 9 -14
34 9 15 15 42 29 59 33 30 6 30 6 16 36 -21 41 -10 95 24 130 34 33 92 48 222
57 101 6 128 23 72 42 -37 13 -51 35 -51 80 0 18 -7 41 -16 50 -9 10 -19 43
-23 72 -6 52 -7 54 -30 45z"/>
<path d="M840 1040 c0 -127 -2 -142 -20 -160 -13 -13 -33 -20 -59 -20 -33 0
-40 -4 -45 -25 -4 -15 -16 -27 -32 -31 -13 -4 -23 -11 -21 -18 7 -21 39 -18
64 6 20 19 35 23 86 23 62 0 62 0 65 30 5 63 13 76 47 91 27 11 35 20 35 39 0
31 32 65 63 65 19 1 17 5 -22 40 -39 36 -139 100 -155 100 -3 0 -6 -63 -6
-140z"/>
<path d="M209 1003 c-19 -22 -59 -88 -59 -97 0 -3 16 -6 35 -6 21 0 35 5 35
13 0 27 21 41 67 46 43 5 48 9 48 31 0 23 -4 25 -56 28 -43 2 -58 -1 -70 -15z"/>
<path d="M1006 988 c-3 -7 -7 -26 -11 -41 -4 -20 -16 -33 -40 -43 -21 -8 -35
-21 -35 -32 0 -13 9 -17 44 -17 48 -1 90 -29 107 -72 7 -19 16 -23 54 -23 37
0 45 3 45 18 0 29 -36 127 -65 177 -24 39 -31 45 -61 45 -19 0 -36 -6 -38 -12z"/>
<path d="M265 795 c-52 -51 -13 -140 57 -133 30 3 33 7 40 47 4 24 13 50 20
58 10 13 8 19 -11 34 -32 27 -77 24 -106 -6z"/>
<path d="M909 801 c-19 -15 -21 -21 -11 -34 7 -8 16 -34 20 -58 7 -40 10 -44
40 -47 23 -2 38 3 57 22 71 71 -28 180 -106 117z"/>
<path d="M425 755 c-52 -51 -13 -140 57 -133 30 3 33 7 40 47 4 24 13 50 20
58 10 13 8 19 -11 34 -32 27 -77 24 -106 -6z"/>
<path d="M749 761 c-19 -15 -21 -21 -11 -34 7 -8 16 -34 20 -58 7 -40 10 -44
40 -47 23 -2 38 3 57 22 71 71 -28 180 -106 117z"/>
<path d="M585 715 c-16 -15 -25 -36 -25 -55 0 -19 9 -40 25 -55 49 -50 135
-15 135 55 0 19 -9 40 -25 55 -15 16 -36 25 -55 25 -19 0 -40 -9 -55 -25z"/>
<path d="M1067 691 c-14 -29 -14 -29 18 -35 17 -4 42 -17 55 -31 13 -13 27
-22 31 -19 5 3 9 30 9 60 l0 54 -49 0 c-45 0 -51 -3 -64 -29z"/>
<path d="M267 621 c-120 -8 -129 -18 -125 -145 2 -73 6 -91 18 -91 12 0 16 17
18 78 3 68 5 77 22 77 19 0 20 -10 22 -197 3 -168 5 -198 18 -198 11 0 16 16
20 63 4 46 10 67 23 77 18 13 18 14 -3 35 -20 20 -22 30 -18 125 3 98 4 105
32 134 15 16 45 34 65 39 40 11 35 11 -92 3z"/>
<path d="M921 619 c20 -6 50 -24 65 -40 28 -29 29 -36 32 -134 4 -95 2 -105
-18 -125 -21 -21 -21 -22 -3 -35 13 -10 19 -31 23 -77 4 -47 9 -63 20 -63 13
0 15 30 18 198 2 187 3 197 22 197 17 0 19 -9 22 -77 2 -61 6 -78 18 -78 12 0
16 18 18 93 3 87 1 94 -22 117 -22 22 -34 25 -94 25 -38 0 -85 2 -103 5 l-34
5 36 -11z"/>
<path d="M427 581 c-120 -8 -129 -18 -125 -145 2 -73 6 -91 18 -91 12 0 16 17
18 78 3 68 5 77 22 77 19 0 20 -10 22 -197 3 -168 5 -198 18 -198 11 0 16 16
20 63 4 46 10 67 23 77 18 13 18 14 -3 35 -20 20 -22 30 -18 125 3 98 4 105
32 134 15 16 45 34 65 39 40 11 35 11 -92 3z"/>
<path d="M761 579 c20 -6 50 -24 65 -40 28 -29 29 -36 32 -134 4 -95 2 -105
-18 -125 -21 -21 -21 -22 -3 -35 13 -10 19 -31 23 -77 4 -47 9 -63 20 -63 13
0 15 30 18 198 2 187 3 197 22 197 17 0 19 -9 22 -77 2 -61 6 -78 18 -78 12 0
16 18 18 93 3 87 1 94 -22 117 -22 22 -34 25 -94 25 -38 0 -85 2 -103 5 l-34
5 36 -11z"/>
<path d="M484 515 c-23 -23 -25 -30 -22 -117 2 -75 6 -93 18 -93 12 0 16 17
18 78 3 68 5 77 22 77 19 0 20 -10 22 -197 3 -168 5 -198 18 -198 11 0 16 16
20 63 5 65 23 92 60 92 37 0 55 -27 60 -92 4 -47 9 -63 20 -63 13 0 15 30 18
198 2 187 3 197 22 197 17 0 19 -9 22 -77 2 -61 6 -78 18 -78 12 0 16 18 18
93 3 87 1 94 -22 117 -24 24 -30 25 -156 25 -126 0 -132 -1 -156 -25z"/>
</g>
</svg>
