<?xml version="1.0" standalone="no"?>
<!DOCTYPE svg PUBLIC "-//W3C//DTD SVG 20010904//EN"
 "http://www.w3.org/TR/2001/REC-SVG-20010904/DTD/svg10.dtd">
<svg version="1.0" xmlns="http://www.w3.org/2000/svg"
 width="128.000000pt" height="128.000000pt" viewBox="0 0 128.000000 128.000000"
 preserveAspectRatio="xMidYMid meet">

<g transform="translate(0.000000,128.000000) scale(0.100000,-0.100000)"
fill="#000000" stroke="none">
<path d="M689 1125 c-14 -7 -30 -25 -37 -39 l-12 -26 -290 0 c-277 0 -291 -1
-310 -20 -19 -19 -20 -33 -20 -440 0 -407 1 -421 20 -440 20 -20 33 -20 600
-20 567 0 580 0 600 20 19 19 20 33 20 440 0 407 -1 421 -20 440 -19 19 -33
20 -210 20 l-190 0 -12 26 c-22 48 -88 67 -139 39z m-231 -322 l-3 -138 -157
-3 -158 -3 0 141 0 140 160 0 161 0 -3 -137z m122 -5 c0 -179 0 -178 117 -178
82 0 83 0 72 -21 -6 -12 -9 -39 -7 -60 l4 -39 -75 0 c-106 0 -111 -6 -111
-137 l0 -103 -40 0 -40 0 0 102 c0 116 -10 138 -66 138 -27 0 -37 6 -48 28
-35 67 -137 67 -172 0 -11 -21 -22 -28 -44 -28 -30 0 -30 0 -30 60 l0 60 162
0 c136 0 164 3 180 17 16 14 18 33 18 160 l0 143 40 0 40 0 0 -142z m104 113
c41 -60 73 -61 111 -2 13 20 28 31 43 31 23 0 23 0 20 -137 l-3 -138 -115 0
-115 0 -3 138 c-3 137 -3 137 20 137 14 0 30 -11 42 -29z m296 -113 c0 -173 3
-178 97 -178 l63 0 0 -60 0 -60 -93 0 -93 0 4 35 c5 42 -14 92 -39 106 -17 9
-19 23 -19 154 l0 145 40 0 40 0 0 -142z m160 2 l0 -141 -57 3 -58 3 -3 138
-3 137 61 0 60 0 0 -140z m-928 -388 c16 -45 70 -112 90 -112 19 0 69 66 86
113 15 42 20 47 42 45 25 -3 25 -5 28 -100 l3 -98 -161 0 -160 0 0 100 0 100
28 0 c24 0 30 -6 44 -48z m593 17 c11 -17 28 -35 38 -40 22 -13 46 1 72 40
l20 31 103 0 102 0 0 -100 0 -100 -260 0 -260 0 0 93 c0 52 3 97 7 100 3 4 40
7 82 7 74 0 77 -1 96 -31z"/>
</g>
</svg>
